<svg id="Calque_1" data-name="Calque 1" xmlns="http://www.w3.org/2000/svg" xmlns:xlink="http://www.w3.org/1999/xlink" viewBox="0 0 499.5 499.13">
  <defs>
    <style>
      .cls-1, .cls-2, .cls-3 {
        stroke: #000;
        stroke-miterlimit: 10;
      }

      .cls-1 {
        fill: url(#Dégradé_sans_nom_55);
      }

      .cls-2 {
        fill: url(#Dégradé_sans_nom_55-2);
      }

      .cls-3 {
        fill: url(#Dégradé_sans_nom_59);
      }

      .cls-4 {
        font-size: 150px;
        fill: #fff;
        font-family: HanziPenSC-W3-GBpc-EUC-H, HanziPen SC;
      }
    </style>
    <linearGradient id="Dégradé_sans_nom_55" data-name="Dégradé sans nom 55" x1="179.83" y1="283.88" x2="320.03" y2="283.88" gradientTransform="translate(-88.89 129.64) rotate(-25.97)" gradientUnits="userSpaceOnUse">
      <stop offset="0" stop-color="#ed1e79"/>
      <stop offset="0.42" stop-color="#7a41a5"/>
      <stop offset="0.72" stop-color="#490f89"/>
      <stop offset="1" stop-color="#1b1464"/>
    </linearGradient>
    <linearGradient id="Dégradé_sans_nom_55-2" x1="187.68" y1="140.67" x2="312.17" y2="140.67" xlink:href="#Dégradé_sans_nom_55"/>
    <linearGradient id="Dégradé_sans_nom_59" data-name="Dégradé sans nom 59" x1="225.16" y1="99.49" x2="274.7" y2="99.49" gradientTransform="translate(-88.89 129.64) rotate(-25.97)" gradientUnits="userSpaceOnUse">
      <stop offset="0" stop-color="#ed1e79"/>
      <stop offset="0.34" stop-color="#7a41a5"/>
      <stop offset="0.72" stop-color="#490f89"/>
      <stop offset="1" stop-color="#1b1464"/>
    </linearGradient>
  </defs>
  <title>BartenduLogoInGame</title>
  <path class="cls-1" d="M345.19,364.76l-67.1,32.69a14.25,14.25,0,0,1-18.49-5.51L147.3,203.83a3.56,3.56,0,0,1,1.49-5l119.67-58.3a3.55,3.55,0,0,1,4.86,1.91l78.92,204.38A14.25,14.25,0,0,1,345.19,364.76Z" transform="translate(-0.08 -0.13)"/>
  <path class="cls-2" d="M155.09,138.77l62.21-30.31a5.29,5.29,0,0,1,5.62.71l41.66,33.24L152.67,196.93l-.48-53.3A5.27,5.27,0,0,1,155.09,138.77Z" transform="translate(-0.08 -0.13)"/>
  <path class="cls-3" d="M155.62,103.87l33.86-16.5a4.17,4.17,0,0,1,5.45,1.68l13.53,23.72-44.54,21.69L153.58,109.2A4.17,4.17,0,0,1,155.62,103.87Z" transform="translate(-0.08 -0.13)"/>
  <text class="cls-4" transform="matrix(0.9, -0.44, 0.44, 0.9, 226.11, 299.18)">B</text>
  <g>
    <path d="M288.3,80c27.18,4.61,45.84,26.48,55.56,51.05.7,1.78,3.61,1,2.89-.79-10.08-25.49-29.41-48.36-57.65-53.15-1.89-.32-2.7,2.57-.8,2.89Z" transform="translate(-0.08 -0.13)"/>
    <path d="M295.73,99.7c14.79,2.68,24.72,14.21,30.1,27.63.71,1.77,3.62,1,2.9-.8-5.76-14.35-16.34-26.85-32.21-29.72-1.88-.35-2.69,2.54-.79,2.89Z" transform="translate(-0.08 -0.13)"/>
  </g>
  <g>
    <path d="M240.21,429.55c-27.59-.67-49.08-19.8-62.21-42.69a1.5,1.5,0,0,0-2.59,1.52c13.67,23.82,36.16,43.47,64.8,44.17,1.93.05,1.93-2.95,0-3Z" transform="translate(-0.08 -0.13)"/>
    <path d="M230,411.15c-15-.56-26.42-10.68-33.66-23.16a1.5,1.5,0,0,0-2.59,1.51c7.8,13.45,20.11,24.05,36.25,24.65,1.93.07,1.92-2.93,0-3Z" transform="translate(-0.08 -0.13)"/>
  </g>
  <polygon points="0 0 0 0 0 0 0 0"/>
  <polygon points="499.18 0.44 499.18 0.43 499.18 0.44 499.18 0.44"/>
  <polygon points="499.5 499.13 499.5 499.13 499.5 499.13 499.5 499.13"/>
  <polygon points="0.48 499.13 0.48 499.13 0.48 499.13 0.48 499.13"/>
</svg>
