<svg id="Calque_2" data-name="Calque 2" xmlns="http://www.w3.org/2000/svg" xmlns:xlink="http://www.w3.org/1999/xlink" viewBox="0 0 498.9 498.9">
  <defs>
    <style>
      .cls-1 {
        fill: #390;
      }

      .cls-2 {
        fill: #b9d643;
      }

      .cls-3 {
        fill: #e8fcd2;
      }

      .cls-10, .cls-4, .cls-8 {
        fill: #fff;
      }

      .cls-4, .cls-8 {
        stroke: #282828;
        stroke-width: 3px;
      }

      .cls-4, .cls-8, .cls-9 {
        stroke-miterlimit: 10;
      }

      .cls-5, .cls-9 {
        fill: none;
      }

      .cls-6, .cls-8 {
        opacity: 0.3;
      }

      .cls-7 {
        fill: url(#Dégradé_sans_nom_51);
      }

      .cls-9 {
        stroke: #fff;
        stroke-width: 3.5px;
      }
    </style>
    <linearGradient id="Dégradé_sans_nom_51" data-name="Dégradé sans nom 51" x1="257.07" y1="143.16" x2="257.07" y2="253.67" gradientUnits="userSpaceOnUse">
      <stop offset="0.02" stop-color="#ed7079"/>
      <stop offset="0.54" stop-color="#d45636"/>
      <stop offset="1" stop-color="#d71b2a"/>
    </linearGradient>
  </defs>
  <title>CosmopolitainsLogoNoBackgroundNoText</title>
  <g>
    <circle class="cls-1" cx="126.87" cy="101.76" r="64"/>
    <circle class="cls-2" cx="127.53" cy="102.11" r="54.81" transform="translate(-19.82 29.85) rotate(-12.57)"/>
    <ellipse class="cls-3" cx="120.56" cy="70.82" rx="7.56" ry="18.02" transform="translate(-13.18 27.58) rotate(-12.57)"/>
    <ellipse class="cls-3" cx="134.46" cy="133.17" rx="7.56" ry="18.02" transform="translate(-26.41 32.1) rotate(-12.57)"/>
    <ellipse class="cls-3" cx="158.68" cy="95.04" rx="18.02" ry="7.56" transform="translate(-17.54 36.45) rotate(-12.57)"/>
    <ellipse class="cls-3" cx="96.65" cy="110.39" rx="18.02" ry="7.56" transform="translate(-22.36 23.33) rotate(-12.57)"/>
    <ellipse class="cls-3" cx="100.52" cy="86.08" rx="7.56" ry="18.02" transform="translate(-26.71 124.4) rotate(-57.57)"/>
    <ellipse class="cls-3" cx="155.14" cy="119.45" rx="7.56" ry="18.02" transform="translate(-29.55 185.98) rotate(-57.57)"/>
    <ellipse class="cls-3" cx="111.08" cy="129.27" rx="18.02" ry="7.56" transform="translate(-58.26 153.35) rotate(-57.57)"/>
    <ellipse class="cls-3" cx="144.06" cy="75.82" rx="18.02" ry="7.56" transform="translate(2.15 156.4) rotate(-57.57)"/>
    <path class="cls-4" d="M324.05,190.38l61.66-81.25a4.4,4.4,0,0,0-3.64-7h-250a4.4,4.4,0,0,0-3.65,7l61.66,81.25,53.41,70.39a4.32,4.32,0,0,1,.89,2.62V432.22a4.4,4.4,0,0,1-2.47,3.93l-18.34,9.11-16.73,8.32a4.39,4.39,0,0,0,2.06,8.33h96.33a4.39,4.39,0,0,0,2.06-8.33l-16.73-8.32-18.34-9.11a4.42,4.42,0,0,1-2.47-3.93V263.39a4.32,4.32,0,0,1,.89-2.62Z" transform="translate(-0.66 -0.35)"/>
    <path class="cls-5" d="M191.48,104.12h0v.22Z" transform="translate(-0.66 -0.35)"/>
    <path class="cls-5" d="M167.89,150.93l17.7,21.59q2.52-29.37,5-58.72A59.23,59.23,0,0,1,167.89,150.93Z" transform="translate(-0.66 -0.35)"/>
    <g class="cls-6">
      <path class="cls-1" d="M190.64,113.8a70.39,70.39,0,0,0,.82-9.46v-.22h-8.79a51.7,51.7,0,0,1-5.41,22.44,49.81,49.81,0,0,1-3.45,5.81l7.43,4.34C187.44,126.05,190.09,117.13,190.64,113.8Z" transform="translate(-0.66 -0.35)"/>
      <path class="cls-2" d="M182.67,104.12H146.29c-11.33-.58-14.72-.37-15.22,0l-1,.77a1.88,1.88,0,0,0,.16.18c.41.22,18.27,11.42,43.54,27.27.63-.9,1.44-2.13,2.31-3.63a58.43,58.43,0,0,0,3.2-6.5C182.2,115.11,182.64,105,182.67,104.12Zm-40.5,7.12c.75-2,10.69-1.78,18.4,3,7.53,4.71,12.14,13.28,10.66,14.88-1.33,1.42-7.72-2.56-16.16-7.83C146.89,116.21,141.56,112.89,142.17,111.24Z" transform="translate(-0.66 -0.35)"/>
      <path class="cls-3" d="M161.66,104.41l1.23-.29h-16.6C149.66,105.55,155.41,105.76,161.66,104.41Z" transform="translate(-0.66 -0.35)"/>
      <path class="cls-3" d="M171.23,129.16a5.81,5.81,0,0,0,.5-2.75c-.18-2.74-4.12-6.57-4.36-6.8a43.09,43.09,0,0,0-6.8-5.33c-2.23-1.38-8.29-5.06-13.87-4.82-1.12.05-3.48.19-4.53,1.78-.12.18-.56.63-.43,1s.46.37,1,.68a7.69,7.69,0,0,1,1.21.93c2.71,2.22,11.09,7.45,11.09,7.45,8.43,5.25,14.45,9.8,15.67,8.58A3.89,3.89,0,0,0,171.23,129.16Z" transform="translate(-0.66 -0.35)"/>
    </g>
    <path class="cls-7" d="M181.56,143.16h151a6.1,6.1,0,0,1,4.83,9.82L261.9,251.29a6.09,6.09,0,0,1-9.67,0L176.72,153A6.1,6.1,0,0,1,181.56,143.16Z" transform="translate(-0.66 -0.35)"/>
    <path class="cls-8" d="M244,261.55l1.23,1.71a19.72,19.72,0,0,0,23.63,0l1.24-1.71Z" transform="translate(-0.66 -0.35)"/>
    <line class="cls-9" x1="247.77" y1="261.07" x2="265.11" y2="261.07"/>
    <path class="cls-10" d="M248.78,261.82a1.5,1.5,0,0,0,0-3,1.5,1.5,0,0,0,0,3Z" transform="translate(-0.66 -0.35)"/>
    <path class="cls-10" d="M248.62,262.39a1.5,1.5,0,0,0,0-3,1.5,1.5,0,0,0,0,3Z" transform="translate(-0.66 -0.35)"/>
    <path class="cls-10" d="M248.75,263a1.5,1.5,0,0,0,0-3,1.5,1.5,0,0,0,0,3Z" transform="translate(-0.66 -0.35)"/>
    <path class="cls-10" d="M249,263.32a1.5,1.5,0,0,0,0-3,1.5,1.5,0,0,0,0,3Z" transform="translate(-0.66 -0.35)"/>
    <path class="cls-10" d="M247.68,261a1.5,1.5,0,0,0,0-3,1.5,1.5,0,0,0,0,3Z" transform="translate(-0.66 -0.35)"/>
    <path class="cls-10" d="M246.92,260.56a1.5,1.5,0,0,0,0-3,1.5,1.5,0,0,0,0,3Z" transform="translate(-0.66 -0.35)"/>
    <path class="cls-10" d="M247.38,261.16a1.5,1.5,0,0,0,0-3,1.5,1.5,0,0,0,0,3Z" transform="translate(-0.66 -0.35)"/>
    <path class="cls-10" d="M247.58,261.39a1.5,1.5,0,0,0,0-3,1.5,1.5,0,0,0,0,3Z" transform="translate(-0.66 -0.35)"/>
    <path class="cls-10" d="M247.82,261.69a1.5,1.5,0,0,0,0-3,1.5,1.5,0,0,0,0,3Z" transform="translate(-0.66 -0.35)"/>
    <path class="cls-10" d="M248,261.92a1.5,1.5,0,0,0,0-3,1.5,1.5,0,0,0,0,3Z" transform="translate(-0.66 -0.35)"/>
    <path class="cls-10" d="M248,262.05a1.5,1.5,0,0,0,0-3,1.5,1.5,0,0,0,0,3Z" transform="translate(-0.66 -0.35)"/>
    <path class="cls-10" d="M248.28,262.62a1.5,1.5,0,0,0,0-3,1.5,1.5,0,0,0,0,3Z" transform="translate(-0.66 -0.35)"/>
    <path class="cls-10" d="M264.86,261.31c2,.49,3.61-1,4.27-2.74.54-1.4-1.54-2.54-2.5-1.46s-1.5,2.78-2.6,3.87c-1.38,1.35.74,3.48,2.12,2.12,1.14-1.13,1.55-2.7,2.6-3.87l-2.51-1.46c-.07.18-.47.68-.58.65-1.87-.46-2.67,2.43-.8,2.89Z" transform="translate(-0.66 -0.35)"/>
    <path class="cls-10" d="M244.81,260.05l3,3,.87,0-2.27-3.56Z" transform="translate(-0.66 -0.35)"/>
    <polygon class="cls-10" points="266.47 262.69 268.67 259.69 266.38 259.69 265.11 262.45 265.11 263.3 266.47 262.69"/>
  </g>
  <polygon class="cls-10" points="0 0.31 0 0.31 0 0.31 0 0.31"/>
  <polygon class="cls-10" points="498.9 0 498.9 0 498.9 0 498.9 0"/>
  <polygon class="cls-10" points="498.28 498.9 498.28 498.9 498.28 498.9 498.28 498.9"/>
  <polygon class="cls-10" points="0.31 498.59 0.31 498.59 0.31 498.59 0.31 498.59"/>
</svg>
