<svg id="Calque_2" data-name="Calque 2" xmlns="http://www.w3.org/2000/svg" xmlns:xlink="http://www.w3.org/1999/xlink" viewBox="0 0 500 500">
  <defs>
    <style>
      .cls-1, .cls-13, .cls-6 {
        fill: #fff;
      }

      .cls-2 {
        opacity: 0.75;
        fill: url(#Dégradé_sans_nom_75);
      }

      .cls-3 {
        fill: #390;
      }

      .cls-4 {
        fill: #b9d643;
      }

      .cls-5 {
        fill: #e8fcd2;
      }

      .cls-13, .cls-6 {
        stroke: #282828;
        stroke-width: 3px;
      }

      .cls-13, .cls-14, .cls-6 {
        stroke-miterlimit: 10;
      }

      .cls-14, .cls-7 {
        fill: none;
      }

      .cls-13, .cls-8 {
        opacity: 0.3;
      }

      .cls-9 {
        fill: url(#Dégradé_sans_nom_51);
      }

      .cls-10 {
        font-size: 70.92px;
        font-family: DINCondensed-Bold, DIN Condensed;
        font-weight: 700;
      }

      .cls-10, .cls-12 {
        letter-spacing: -0.03em;
      }

      .cls-11 {
        letter-spacing: -0.04em;
      }

      .cls-14 {
        stroke: #fff;
        stroke-width: 3.5px;
      }
    </style>
    <linearGradient id="Dégradé_sans_nom_75" data-name="Dégradé sans nom 75" x1="250" y1="500" x2="250" gradientUnits="userSpaceOnUse">
      <stop offset="0.02" stop-color="#ed7079"/>
      <stop offset="0.4" stop-color="#851be0"/>
      <stop offset="1" stop-color="#004ba5"/>
    </linearGradient>
    <linearGradient id="Dégradé_sans_nom_51" data-name="Dégradé sans nom 51" x1="236.11" y1="143.16" x2="236.11" y2="253.67" gradientUnits="userSpaceOnUse">
      <stop offset="0.02" stop-color="#ed7079"/>
      <stop offset="0.54" stop-color="#d45636"/>
      <stop offset="1" stop-color="#d71b2a"/>
    </linearGradient>
  </defs>
  <title>CosmopolitainsLogo</title>
  <rect class="cls-1" width="500" height="500"/>
  <rect class="cls-2" width="500" height="500"/>
  <g>
    <circle class="cls-3" cx="106.57" cy="102.11" r="64"/>
    <circle class="cls-4" cx="106.57" cy="102.11" r="54.81" transform="translate(-19.66 25.63) rotate(-12.57)"/>
    <ellipse class="cls-5" cx="99.6" cy="70.82" rx="7.56" ry="18.02" transform="translate(-13.02 23.37) rotate(-12.57)"/>
    <ellipse class="cls-5" cx="113.5" cy="133.17" rx="7.56" ry="18.02" transform="translate(-26.26 27.89) rotate(-12.57)"/>
    <ellipse class="cls-5" cx="137.72" cy="95.04" rx="18.02" ry="7.56" transform="translate(-17.38 32.24) rotate(-12.57)"/>
    <ellipse class="cls-5" cx="75.69" cy="110.39" rx="18.02" ry="7.56" transform="translate(-22.2 19.11) rotate(-12.57)"/>
    <ellipse class="cls-5" cx="79.56" cy="86.08" rx="7.56" ry="18.02" transform="translate(-35.76 107.06) rotate(-57.57)"/>
    <ellipse class="cls-5" cx="134.18" cy="119.45" rx="7.56" ry="18.02" transform="translate(-38.6 168.64) rotate(-57.57)"/>
    <ellipse class="cls-5" cx="90.12" cy="129.27" rx="18.02" ry="7.56" transform="translate(-67.32 136.01) rotate(-57.57)"/>
    <ellipse class="cls-5" cx="123.11" cy="75.82" rx="18.02" ry="7.56" transform="translate(-6.91 139.06) rotate(-57.57)"/>
    <path class="cls-6" d="M303.1,190.38l61.65-81.25a4.4,4.4,0,0,0-3.64-7h-250a4.39,4.39,0,0,0-3.64,7l61.65,81.25,53.42,70.39a4.37,4.37,0,0,1,.88,2.62V432.22a4.4,4.4,0,0,1-2.47,3.93l-18.33,9.11-16.73,8.32a4.39,4.39,0,0,0,2.06,8.33h96.32a4.39,4.39,0,0,0,2.06-8.33l-16.73-8.32-18.34-9.11a4.42,4.42,0,0,1-2.47-3.93V263.39a4.38,4.38,0,0,1,.89-2.62Z"/>
    <path class="cls-7" d="M170.52,104.12h0v.22Z"/>
    <path class="cls-7" d="M146.93,150.93l17.7,21.59q2.53-29.37,5.06-58.72A59.29,59.29,0,0,1,146.93,150.93Z"/>
    <g class="cls-8">
      <path class="cls-3" d="M169.69,113.8a71.36,71.36,0,0,0,.81-9.46v-.22h-8.78a51.88,51.88,0,0,1-5.42,22.44,48.45,48.45,0,0,1-3.45,5.81l7.44,4.34C166.48,126.05,169.13,117.13,169.69,113.8Z"/>
      <path class="cls-4" d="M161.72,104.12H125.33c-11.33-.58-14.71-.37-15.22,0l-1,.77a1.88,1.88,0,0,0,.16.18c.41.22,18.27,11.42,43.54,27.27.63-.9,1.44-2.13,2.32-3.63a59.34,59.34,0,0,0,3.19-6.5C161.24,115.11,161.68,105,161.72,104.12Zm-40.51,7.12c.75-2,10.7-1.78,18.4,3,7.53,4.71,12.15,13.28,10.66,14.88-1.33,1.42-7.71-2.56-16.15-7.83C125.93,116.21,120.6,112.89,121.21,111.24Z"/>
      <path class="cls-5" d="M140.7,104.41l1.23-.29h-16.6C128.7,105.55,134.46,105.76,140.7,104.41Z"/>
      <path class="cls-5" d="M150.27,129.16a5.67,5.67,0,0,0,.5-2.75c-.17-2.74-4.11-6.57-4.35-6.8a43.45,43.45,0,0,0-6.81-5.33c-2.22-1.38-8.29-5.06-13.87-4.82-1.12.05-3.48.19-4.53,1.78-.12.18-.56.63-.43,1s.47.37,1,.68a7.4,7.4,0,0,1,1.22.93c2.7,2.22,11.09,7.45,11.09,7.45,8.43,5.25,14.44,9.8,15.66,8.58A3.47,3.47,0,0,0,150.27,129.16Z"/>
    </g>
    <path class="cls-9" d="M160.6,143.16h151a6.1,6.1,0,0,1,4.84,9.82L241,251.29a6.1,6.1,0,0,1-9.68,0L155.76,153A6.1,6.1,0,0,1,160.6,143.16Z"/>
    <text class="cls-10" transform="translate(250.73 318.85)">Les<tspan x="0" y="55.16">Cosmo</tspan><tspan class="cls-11"><tspan x="0" y="110.32">P</tspan><tspan class="cls-12" x="26.17" y="110.32">olitains</tspan></tspan></text>
    <path class="cls-13" d="M223.06,261.55l1.23,1.71a19.72,19.72,0,0,0,23.63,0l1.24-1.71Z"/>
    <line class="cls-14" x1="227.47" y1="261.42" x2="244.81" y2="261.42"/>
    <path class="cls-1" d="M227.83,261.82a1.5,1.5,0,0,0,0-3,1.5,1.5,0,0,0,0,3Z"/>
    <path class="cls-1" d="M227.66,262.39a1.5,1.5,0,0,0,0-3,1.5,1.5,0,0,0,0,3Z"/>
    <path class="cls-1" d="M227.79,263a1.5,1.5,0,0,0,0-3,1.5,1.5,0,0,0,0,3Z"/>
    <path class="cls-1" d="M228,263.32a1.5,1.5,0,0,0,0-3,1.5,1.5,0,0,0,0,3Z"/>
    <path class="cls-1" d="M226.73,261a1.5,1.5,0,0,0,0-3,1.5,1.5,0,0,0,0,3Z"/>
    <path class="cls-1" d="M226,260.56a1.5,1.5,0,0,0,0-3,1.5,1.5,0,0,0,0,3Z"/>
    <path class="cls-1" d="M226.43,261.16a1.5,1.5,0,0,0,0-3,1.5,1.5,0,0,0,0,3Z"/>
    <path class="cls-1" d="M226.63,261.39a1.5,1.5,0,0,0,0-3,1.5,1.5,0,0,0,0,3Z"/>
    <path class="cls-1" d="M226.86,261.69a1.5,1.5,0,0,0,0-3,1.5,1.5,0,0,0,0,3Z"/>
    <path class="cls-1" d="M227,261.92a1.5,1.5,0,0,0,0-3,1.5,1.5,0,0,0,0,3Z"/>
    <path class="cls-1" d="M227,262.05a1.5,1.5,0,0,0,0-3,1.5,1.5,0,0,0,0,3Z"/>
    <path class="cls-1" d="M227.33,262.62a1.5,1.5,0,0,0,0-3,1.5,1.5,0,0,0,0,3Z"/>
    <path class="cls-1" d="M243.91,261.31c2,.49,3.6-1,4.27-2.74.53-1.4-1.55-2.54-2.51-1.46s-1.5,2.78-2.6,3.87c-1.38,1.35.74,3.48,2.12,2.12,1.14-1.13,1.56-2.7,2.6-3.87l-2.51-1.46c-.06.18-.46.68-.58.65-1.87-.46-2.67,2.43-.79,2.89Z"/>
    <path class="cls-1" d="M223.86,260.05l3,3,.87,0-2.26-3.56Z"/>
    <polygon class="cls-1" points="246.17 263.04 248.37 260.03 246.08 260.03 244.81 262.8 244.81 263.65 246.17 263.04"/>
  </g>
</svg>
